<mxfile host="Electron" modified="2024-04-24T18:07:37.935Z" agent="Mozilla/5.0 (Windows NT 10.0; Win64; x64) AppleWebKit/537.36 (KHTML, like Gecko) draw.io/23.1.5 Chrome/120.0.6099.109 Electron/28.1.0 Safari/537.36" etag="RjlGLAvMWJul76Gvon8A" version="23.1.5" type="device">
  <diagram name="Page-1" id="e7e014a7-5840-1c2e-5031-d8a46d1fe8dd">
    <mxGraphModel dx="1178" dy="790" grid="1" gridSize="10" guides="1" tooltips="1" connect="1" arrows="0" fold="1" page="1" pageScale="1" pageWidth="1169" pageHeight="826" background="none" math="0" shadow="0">
      <root>
        <mxCell id="0" />
        <mxCell id="1" parent="0" />
        <mxCell id="TNf5Z8Sz2Jh5wrevXViB-41" value="Actor" style="shape=umlActor;verticalLabelPosition=bottom;verticalAlign=top;html=1;" parent="1" vertex="1">
          <mxGeometry x="30" y="48.309999999999995" width="30" height="60" as="geometry" />
        </mxCell>
        <mxCell id="wsK9ByOiBfa8sDpIFdj--3" value="Загрузка платежей в базу данных" style="ellipse;whiteSpace=wrap;html=1;" parent="1" vertex="1">
          <mxGeometry x="260" y="120" width="175" height="70" as="geometry" />
        </mxCell>
        <mxCell id="wsK9ByOiBfa8sDpIFdj--7" value="Прием платежей" style="ellipse;whiteSpace=wrap;html=1;" parent="1" vertex="1">
          <mxGeometry x="200" y="10" width="175" height="76.62" as="geometry" />
        </mxCell>
        <mxCell id="wsK9ByOiBfa8sDpIFdj--48" value="Контроль задолженности" style="ellipse;whiteSpace=wrap;html=1;" parent="1" vertex="1">
          <mxGeometry x="40" y="220" width="140" height="70" as="geometry" />
        </mxCell>
        <mxCell id="wsK9ByOiBfa8sDpIFdj--49" value="Проверка оплат" style="ellipse;whiteSpace=wrap;html=1;" parent="1" vertex="1">
          <mxGeometry x="200" y="220" width="140" height="70" as="geometry" />
        </mxCell>
        <mxCell id="fDel3tof_uO1-oGqYFEe-5" value="" style="endArrow=none;html=1;rounded=0;" parent="1" source="TNf5Z8Sz2Jh5wrevXViB-41" target="wsK9ByOiBfa8sDpIFdj--3" edge="1">
          <mxGeometry width="50" height="50" relative="1" as="geometry">
            <mxPoint x="300" y="350" as="sourcePoint" />
            <mxPoint x="350" y="300" as="targetPoint" />
          </mxGeometry>
        </mxCell>
        <mxCell id="fDel3tof_uO1-oGqYFEe-8" value="" style="endArrow=none;html=1;rounded=0;entryX=0;entryY=0.5;entryDx=0;entryDy=0;" parent="1" source="TNf5Z8Sz2Jh5wrevXViB-41" target="wsK9ByOiBfa8sDpIFdj--7" edge="1">
          <mxGeometry width="50" height="50" relative="1" as="geometry">
            <mxPoint x="300" y="350" as="sourcePoint" />
            <mxPoint x="350" y="300" as="targetPoint" />
          </mxGeometry>
        </mxCell>
        <mxCell id="a5c_sYZ6xPuqzVH80Lyi-1" value="" style="endArrow=none;html=1;rounded=0;" parent="1" source="wsK9ByOiBfa8sDpIFdj--49" target="TNf5Z8Sz2Jh5wrevXViB-41" edge="1">
          <mxGeometry width="50" height="50" relative="1" as="geometry">
            <mxPoint x="360" y="400" as="sourcePoint" />
            <mxPoint x="410" y="350" as="targetPoint" />
          </mxGeometry>
        </mxCell>
        <mxCell id="a5c_sYZ6xPuqzVH80Lyi-2" value="" style="endArrow=none;html=1;rounded=0;exitX=0.45;exitY=-0.043;exitDx=0;exitDy=0;exitPerimeter=0;" parent="1" source="wsK9ByOiBfa8sDpIFdj--48" target="TNf5Z8Sz2Jh5wrevXViB-41" edge="1">
          <mxGeometry width="50" height="50" relative="1" as="geometry">
            <mxPoint x="360" y="400" as="sourcePoint" />
            <mxPoint x="410" y="350" as="targetPoint" />
            <Array as="points" />
          </mxGeometry>
        </mxCell>
        <mxCell id="VXC7Uw9GOscnxwaOwqHt-2" value="Бухгалтер" style="text;html=1;align=center;verticalAlign=middle;resizable=0;points=[];autosize=1;strokeColor=none;fillColor=none;" vertex="1" parent="1">
          <mxGeometry x="5" y="18.310000000000002" width="80" height="30" as="geometry" />
        </mxCell>
      </root>
    </mxGraphModel>
  </diagram>
</mxfile>
